<?xml version="1.0" standalone="no"?>
<!DOCTYPE svg PUBLIC "-//W3C//DTD SVG 20010904//EN"
 "http://www.w3.org/TR/2001/REC-SVG-20010904/DTD/svg10.dtd">
<svg version="1.0" xmlns="http://www.w3.org/2000/svg"
 width="96.000000pt" height="96.000000pt" viewBox="0 0 96.000000 96.000000"
 preserveAspectRatio="xMidYMid meet">
<metadata>
Created by potrace 1.16, written by Peter Selinger 2001-2019
</metadata>
<g transform="translate(0.000000,96.000000) scale(0.100000,-0.100000)"
fill="#000000" stroke="none">
<path d="M251 727 c-41 -107 -126 -279 -174 -350 -29 -43 -41 -70 -34 -72 44
-15 179 -45 186 -41 4 3 16 23 26 46 10 22 21 40 25 40 3 0 16 -31 28 -69 l23
-69 104 -35 105 -35 187 68 c104 37 188 72 187 77 0 4 -23 55 -51 113 -29 58
-73 168 -99 245 -26 77 -48 142 -50 144 -1 1 -31 -4 -66 -13 -80 -20 -201 -20
-293 -1 -38 8 -72 15 -75 15 -3 0 -16 -28 -29 -63z m532 -330 c25 -54 32 -79
24 -82 -7 -3 -67 -24 -133 -48 l-122 -44 -40 76 c-41 79 -67 142 -125 301
l-35 96 122 -4 c66 -2 137 0 156 5 l35 9 41 -115 c22 -64 57 -151 77 -194z
m-437 108 c20 -55 52 -133 70 -174 19 -41 32 -76 30 -78 -3 -3 -17 1 -33 9
-24 11 -34 31 -72 141 -24 70 -46 127 -50 127 -4 0 -28 -42 -53 -94 -40 -81
-50 -94 -68 -89 -11 3 -20 7 -20 8 0 1 15 27 33 58 18 30 51 93 73 141 29 63
41 81 46 68 4 -9 24 -62 44 -117z"/>
</g>
</svg>
